<?xml version="1.0" standalone="no"?>
<!DOCTYPE svg PUBLIC "-//W3C//DTD SVG 20010904//EN" "http://www.w3.org/TR/2001/REC-SVG-20010904/DTD/svg10.dtd">
<svg xmlns="http://www.w3.org/2000/svg" version="1.0" width="562.000000pt" height="450.000000pt" viewBox="0 0 562.000000 450.000000" preserveAspectRatio="xMidYMid meet">
<metadata>
Created by potrace 1.16, written by Peter Selinger 2001-2019
<meta name="Producer" content="Online-Convert"/></metadata>
<g transform="translate(0.000000,450.000000) scale(0.100000,-0.100000)" fill="#000000" stroke="none">
<path d="M2649 3545 c-1 -3 -2 -10 -3 -17 0 -6 -7 -13 -15 -16 -9 -3 -11 0 -6 9 5 8 -1 5 -13 -5 -26 -23 -29 -34 -4 -15 16 13 16 12 -1 -7 -9 -12 -35 -26 -57 -33 -75 -22 -140 -99 -140 -165 l0 -24 -158 -3 c-156 -4 -160 -5 -220 -36 -34 -17 -62 -30 -62 -28 0 8 75 49 113 61 23 7 33 13 22 13 -34 1 -101 -35 -150 -80 -45 -42 -81 -90 -55 -74 8 5 11 3 8 -6 -3 -8 -11 -14 -18 -14 -7 0 -15 -7 -17 -15 -4 -13 -3 -13 7 0 9 12 10 10 4 -10 -4 -14 -10 -225 -13 -470 l-6 -445 -29 -42 c-16 -24 -32 -40 -37 -38 -4 3 -11 0 -15 -6 -4 -8 -3 -9 4 -5 19 12 15 2 -50 -100 -63 -100 -191 -344 -221 -421 l-17 -43 -190 0 c-120 0 -190 -4 -190 -10 0 -6 68 -10 185 -10 102 0 185 -2 185 -4 0 -2 -7 -21 -16 -41 -8 -21 -19 -57 -24 -79 -6 -31 -8 -35 -9 -14 -1 15 8 50 18 78 l19 50 -176 -2 -177 -2 168 -3 c92 -2 167 -5 167 -6 0 -2 -7 -24 -16 -50 -16 -48 -16 -92 1 -93 20 -1 85 -46 79 -55 -3 -5 3 -6 12 -2 13 5 15 3 9 -7 -5 -9 -4 -11 4 -6 7 5 34 -1 60 -13 27 -11 86 -31 132 -44 l83 -25 17 -73 c9 -41 19 -82 23 -91 8 -16 -34 -18 -700 -18 -389 0 -710 -3 -713 -5 -2 -3 319 -5 714 -5 395 0 720 -2 723 -5 3 -3 -322 -5 -722 -5 -578 0 -727 -3 -724 -12 4 -10 485 -14 2354 -16 1292 -1 2359 0 2372 3 12 3 22 10 22 15 0 7 -272 10 -767 10 -762 0 -766 0 -748 20 10 11 22 17 26 14 10 -6 29 38 28 64 0 9 -7 -1 -15 -23 -14 -42 -13 -31 6 71 l12 60 60 13 c33 7 97 26 141 43 45 16 92 31 104 32 11 0 19 5 15 10 -3 5 2 7 11 3 11 -4 27 3 44 19 16 14 22 23 15 19 -9 -5 -11 0 -7 17 4 14 -4 51 -18 91 l-25 67 123 0 123 0 4 -40 c2 -22 0 -44 -5 -49 -12 -12 11 -179 28 -206 7 -11 15 -41 18 -65 5 -34 4 -39 -3 -20 l-9 25 2 -25 c1 -14 8 -25 16 -25 8 0 16 -6 19 -14 3 -9 0 -11 -8 -6 -9 5 -11 4 -6 -3 4 -7 16 -17 28 -23 11 -6 18 -7 15 -2 -3 4 40 6 94 5 79 -3 105 -1 127 13 l27 16 -24 -20 c-13 -12 -19 -21 -14 -21 5 0 20 12 34 27 13 14 18 23 10 18 -11 -6 -13 -4 -6 11 4 10 10 35 13 54 5 37 19 63 32 55 4 -2 5 6 3 18 -2 12 3 58 12 102 8 44 17 109 19 145 4 60 4 62 -5 20 -5 -25 -7 -53 -5 -63 2 -9 0 -14 -6 -11 -6 4 -7 27 -3 58 9 72 14 86 32 86 15 0 15 12 -3 54 -6 15 -4 17 7 11 8 -4 3 4 -11 17 -14 14 -27 23 -30 21 -3 -3 4 -11 14 -19 11 -8 16 -14 10 -14 -17 0 -31 15 -39 39 -5 18 -4 22 6 16 8 -5 7 -1 -2 10 -15 15 -36 17 -173 16 -86 -1 -164 -5 -173 -8 -12 -5 -14 -3 -8 8 5 8 -1 5 -13 -5 -12 -11 -22 -24 -22 -29 0 -6 7 -2 15 9 14 17 14 17 3 -10 -7 -16 -25 -42 -40 -57 -33 -32 -36 -59 -8 -59 13 0 20 -7 20 -20 0 -19 -7 -20 -122 -20 l-123 0 -39 84 c-21 48 -35 90 -30 97 5 8 3 10 -6 4 -10 -6 -12 -4 -7 9 5 11 3 15 -5 10 -8 -5 -9 -2 -5 10 5 11 3 15 -5 10 -8 -5 -9 -2 -5 9 3 9 2 16 -3 14 -5 -1 -36 45 -68 103 -32 58 -87 148 -120 199 -66 99 -69 106 -49 95 7 -4 9 -3 4 2 -5 5 -14 9 -20 9 -9 0 -13 114 -17 440 -4 321 -8 448 -17 468 -17 38 -16 48 2 17 8 -14 14 -20 15 -14 0 17 -55 97 -86 124 -26 22 -26 21 4 -11 45 -50 40 -61 -8 -14 -21 21 -37 42 -34 46 2 4 -1 11 -7 15 -8 4 -9 3 -5 -4 10 -16 6 -15 -50 10 -42 19 -71 23 -201 26 l-153 4 0 34 c0 72 -46 129 -128 159 -21 8 -31 14 -24 14 27 2 86 -31 121 -67 22 -23 30 -28 20 -12 -27 41 -95 84 -136 84 -23 1 -58 13 -88 31 -44 27 -59 30 -130 30 -44 0 -93 -4 -110 -8 -22 -6 -26 -6 -15 2 10 7 11 11 3 11 -7 0 -14 -2 -14 -5z m-236 -345 c9 -78 28 -127 63 -168 18 -22 36 -50 39 -64 9 -34 44 -66 80 -73 37 -7 91 24 105 60 9 23 15 25 65 25 48 0 57 -3 64 -22 33 -85 143 -82 180 5 11 24 33 55 51 67 37 26 67 91 78 164 l7 51 170 0 c167 0 171 0 216 -27 52 -31 89 -71 122 -132 22 -40 22 -50 25 -463 2 -233 -1 -423 -5 -423 -4 1 -35 37 -68 82 -125 168 -224 243 -356 269 -51 10 -62 9 -150 -21 -51 -18 -111 -41 -132 -52 -31 -15 -38 -16 -35 -4 2 8 -1 14 -7 13 -5 -1 -10 -8 -10 -15 0 -7 -23 -25 -50 -40 -28 -16 -61 -35 -75 -44 -24 -16 -28 -15 -97 25 -44 26 -72 49 -73 59 0 21 -20 35 -20 14 0 -21 0 -21 -73 10 -144 61 -165 66 -229 49 -129 -33 -227 -111 -348 -278 -30 -42 -59 -76 -63 -76 -4 -1 -7 191 -5 427 l3 427 31 55 c33 58 104 121 158 138 17 5 99 10 182 11 l151 1 6 -50z m300 -51 l67 -33 85 42 c47 23 96 42 110 42 17 0 36 -16 71 -61 l47 -61 -38 -36 c-25 -25 -39 -33 -42 -24 -3 7 -15 25 -28 40 -18 21 -32 27 -65 27 -35 0 -47 -6 -71 -33 -16 -18 -29 -39 -29 -47 0 -11 -13 -15 -55 -15 -49 0 -55 2 -61 24 -8 35 -46 66 -86 72 -27 5 -40 1 -66 -21 -18 -15 -32 -34 -32 -43 -1 -12 -9 -8 -30 16 -17 18 -30 36 -30 41 0 5 26 37 58 71 l59 62 34 -15 c19 -8 64 -29 102 -48z m-46 -101 c50 -47 12 -138 -57 -138 -68 0 -105 87 -58 137 28 30 83 31 115 1z m310 0 c51 -47 12 -138 -58 -138 -69 0 -108 91 -59 140 28 28 87 27 117 -2z m716 -1119 c75 -21 137 -98 137 -172 0 -45 -137 -716 -152 -745 -28 -54 -1 -52 -908 -52 l-842 0 -28 29 c-16 16 -31 39 -35 52 -48 209 -143 715 -138 741 13 70 70 133 137 148 50 13 1785 12 1829 -1z m1024 -401 c-3 -13 -9 -48 -12 -79 -7 -53 -9 -57 -37 -63 -41 -8 -266 -6 -298 3 -23 6 -26 14 -36 84 l-10 77 199 0 199 0 -5 -22z m-57 -387 c0 -15 -9 -40 -21 -55 -20 -25 -25 -26 -118 -26 -111 0 -127 9 -138 74 l-6 36 142 0 141 0 0 -29z"/>
<path d="M2442 2838 c4 -134 20 -166 114 -232 87 -61 180 -106 219 -106 63 0 238 106 293 178 25 33 27 43 30 150 l4 115 -49 -41 c-26 -22 -72 -65 -102 -95 l-54 -55 -32 34 c-30 31 -37 34 -91 34 -60 0 -91 -15 -110 -52 -8 -15 -25 -3 -111 77 -56 52 -104 95 -108 95 -4 0 -5 -46 -3 -102z"/>
<path d="M1182 1298 c-9 -5 -1 -5 18 -2 76 14 14 -7 -244 -80 -250 -71 -319 -88 -271 -65 l20 9 -20 -3 c-11 -1 -20 -7 -20 -14 0 -6 -3 -15 -7 -19 -5 -4 -8 -15 -8 -25 0 -20 27 -29 140 -50 l66 -12 303 87 c167 48 310 85 318 82 8 -3 12 -2 8 3 -3 5 0 11 7 13 6 2 9 12 5 20 -4 11 -33 23 -89 35 -57 12 -75 19 -59 23 13 3 -15 5 -63 5 -48 0 -94 -3 -104 -7z m182 -49 c28 -8 36 -13 26 -19 -8 -4 -130 -40 -271 -79 l-257 -71 -76 12 c-42 6 -76 15 -76 19 0 3 118 41 263 82 274 79 293 82 391 56z"/>
</g>
</svg>
